<svg enable-background="new 0 0 3100 834" viewBox="0 0 3100 834" xmlns="http://www.w3.org/2000/svg"><g fill="#fff"><path d="m1367.7 19.6-5.1 71.7h-133.6v62.9h117.9v71.2h-117.9v65h135.2v71.6h-215.4v-342.4z"/><path d="m261.4 250.3h382.7v114.8h-382.7z"/><path d="m261.4 475.2h382.7v114.9h-382.7z"/><path d="m14.4 25.7v114.9 560.8 114.9h114.9 231.1v-114.9h-231.1v-560.8h231.1v-114.9h-231.1z"/><path d="m776.3 25.7h-237.6v114.9h237.6v560.8h-237.6v114.9h237.6 114.8v-114.9-560.8-114.9z"/><path d="m1412.4 189.8c0-107.2 37.6-178.3 142.8-178.3 105.7 0 142.7 71.1 142.7 178.3v1.5c0 74.7-17.8 131.1-64 159.5l51.8 60.4-69.6 35.6-50.3-77.2c-3.1.5-7.1.5-10.7.5-105.1 0-142.8-71.1-142.8-178.8v-1.5zm84.3 1c0 70.6 15.2 106.7 58.4 106.7s58.9-36.1 58.9-106.7c0-70.1-15.8-106.7-58.9-106.7s-58.4 36.6-58.4 106.7"/><path d="m1833.5 19.1v208.3c0 46.8 9.6 70.1 50.8 70.1 41.7 0 50.8-23.3 50.8-70.1v-208.3h80.3v212.3c0 90.4-31.5 138.7-131.1 138.7s-131-48.3-131-138.7v-212.3z"/><path d="m2236.4 19.6c27.4 71.6 75.2 219.5 108.7 342.4h-81.8l-14.7-65h-104.1l-14.8 65h-81.3c31.5-122.9 80.3-270.8 108.2-342.4h79.8zm-41.2 94c-12.7 38.1-22.8 75.2-32.5 111.7h67.6c-10.7-36.6-20.3-73.7-32.5-111.7z"/><path d="m2469.5 19.6v270.8h135.1v71.6h-215.4v-342.4z"/><path d="m1367.7 474.6-5.1 71.6h-133.6v63h117.9v71.1h-117.9v65.1h135.2v71.6h-215.4v-342.4z"/><path d="m1494.2 474.6c14.8 30 36.6 72.2 54.8 104.2h1.5c18.8-30.5 41.1-74.2 55.4-104.2h90.4c-23.8 48.8-61.4 113.3-96 170.2l103.2 172.2h-96l-55.9-104.1h-1.5l-56.9 104.1h-94.5l101.1-172.7c-32-54.3-72.1-127.5-95.5-169.7z"/><path d="m1835.6 474.6c30 0 60 2 82.8 9.7 38.1 13.7 63 51.3 63 104.2 0 77.7-49.3 116.3-132.1 116.3h-22.3v112.2h-80.3v-342.4zm-8.6 158.5h15.7c34.6 0 54.4-4.1 54.4-44.7 0-15.3-5.6-28.5-14.7-34.6s-21.3-7.6-38.6-7.6h-16.8z"/><path d="m2252.6 474.6-5.1 71.6h-133.6v63h117.9v71.1h-117.9v65.1h135.2v71.6h-215.4v-342.4z"/><path d="m2398.4 474.6c30 0 60 2 82.8 9.7 38.1 13.7 63 51.3 63 104.1 0 47.3-18.3 80.3-51.3 98.5l61.9 130.1h-83.3l-49.3-112.8c-5.6.5-13.2.5-20.3.5h-12.2v112.3h-80.3v-342.4zm-8.6 160h15.7c34.6 0 54.4-5.6 54.4-46.2 0-15.3-5.6-29.5-14.7-35.6-9.2-6.1-20.4-7.6-38.7-7.6h-16.7z"/><path d="m2825.6 474.6-5.1 71.6h-81.8v270.8h-80.2v-270.8h-83.9v-71.6z"/><path d="m3065.9 559.9c-24.4-12.7-52.8-20.3-78.8-20.3-12.2 0-22.8 1.5-29.4 5.1-10.7 4.6-14.8 12.7-14.8 22.3 0 18.3 18.3 29 43.2 39.1l28.5 11.2c50.8 20.3 74.7 47.7 74.7 97.5 0 79.2-57.9 110.2-127.5 110.2-30.5 0-66.6-6.6-95-16.2l3.6-77.2c24.9 12.2 61 20.8 83.8 20.8 36.6 0 50.8-9.2 50.8-30 0-19.8-13.2-28.4-42.2-40.1l-28.4-11.2c-41.2-16.3-75.7-45.2-75.7-102.1 0-56.4 41.2-102.7 124.5-102.7 33.5 0 67.6 9.2 87.4 17.3z"/></g></svg>